# xmcd
#
# Track frame offsets:
#	150
#	15322
#	29498
#	45507
#	60927
#	74420
#	88192
#	106787
#	118600
#	133506
#	151584
#	168841
#	181750
#	201201
#	216534
#	229271
#
# Disc length: 3245 seconds
#
# Revision: 0
# Processed by: cddbd v1.5.2PL0 Copyright (c) Steve Scherf et al.
# Submitted via: EasyCDDAExtractor 10.2.0.1
#
DISCID=cc0cab10
DTITLE=Beijaflor e Beiramar - Canarinho prisioneiro
DYEAR=2007
DGENRE=Sertanejo
TTITLE0=Canarinho prisioneiro
TTITLE1=Denguinho
TTITLE2=Ô de casa, ô de fora
TTITLE3=Menino da canoa
TTITLE4=Bica d'água
TTITLE5=A braquiaria
TTITLE6=Chico mineiro
TTITLE7=Estrada do amor
TTITLE8=Solidão da madrugada
TTITLE9=Mulher chorona
TTITLE10=Sempre fui eu
TTITLE11=Credo em cruz, ave maria
TTITLE12=Tô por aí
TTITLE13=Cachorro amigo
TTITLE14=Gangorra
TTITLE15=O garrafão
EXTD=
EXTT0=
EXTT1=
EXTT2=
EXTT3=
EXTT4=
EXTT5=
EXTT6=
EXTT7=
EXTT8=
EXTT9=
EXTT10=
EXTT11=
EXTT12=
EXTT13=
EXTT14=
EXTT15=
PLAYORDER=
